<?xml version="1.0" standalone="no"?>
<!DOCTYPE svg PUBLIC "-//W3C//DTD SVG 20010904//EN"
 "http://www.w3.org/TR/2001/REC-SVG-20010904/DTD/svg10.dtd">
<svg version="1.0" xmlns="http://www.w3.org/2000/svg"
 width="164.000000pt" height="164.000000pt" viewBox="0 0 164.000000 164.000000"
 preserveAspectRatio="xMidYMid meet">
<metadata>
Created by potrace 1.11, written by Peter Selinger 2001-2013
</metadata>
<g transform="translate(0.000000,164.000000) scale(0.100000,-0.100000)"
fill="#000000" stroke="none">
<path d="M760 1627 c-3 -3 -26 -8 -52 -11 -66 -9 -172 -43 -242 -77 -188 -93
-334 -266 -407 -480 -29 -84 -33 -108 -35 -226 -2 -113 1 -145 21 -221 40
-148 106 -266 210 -372 30 -32 74 -70 97 -86 24 -16 45 -31 48 -34 11 -12 139
-70 200 -91 86 -29 303 -35 406 -12 189 42 355 150 474 307 50 66 120 200 120
229 0 7 5 18 12 25 7 7 9 12 6 12 -3 0 1 26 8 58 18 79 12 308 -11 382 -86
278 -274 470 -546 559 -36 12 -82 23 -101 25 -19 2 -39 5 -44 8 -12 6 -158 11
-164 5z"/>
</g>
</svg>
